# xmcd CD database file
#
# Track frame offsets:
#	150
#	25555
#	41855
#	57000
#
# Disc length: 1092 seconds
#
# Revision: 0
# Processed by: cddbd v1.5.1PL0 Copyright (c) Steve Scherf et al.
# Submitted via: CDex 1.51
#
DISCID=28044204
DTITLE=KAN - CLOSE TO ME
DYEAR=2001
DGENRE=J-POP
TTITLE0=CLOSE TO ME
TTITLE1=子羊
TTITLE2=ロック試練の恋(Live)
TTITLE3=CLOSE TO ME(Instrumental)
EXTD=YEAR: 2001
EXTT0=
EXTT1=
EXTT2=
EXTT3=
PLAYORDER=
